# xmcd
#
# Track frame offsets:
#	150
#	10450
#	24700
#	43125
#	57450
#	72162
#	86462
#	98875
#	114100
#	133025
#	147725
#	158237
#	172925
#	184050
#	198187
#	209025
#	219550
#	232850
#
# Disc length: 3315 seconds
#
# Revision: 1
# Processed by: cddbd v1.4b41PL2 Copyright (c) Steve Scherf et al.
# Submitted via: audiograbber 1.80
#
DISCID=040cf112
DTITLE=Various Artist - Platinum Classics 2
DYEAR=1900
DGENRE=
TTITLE0=Summer Holiday
TTITLE1=California Dreaming
TTITLE2=Unchained Melody
TTITLE3=Unforgettable
TTITLE4=Fever
TTITLE5=Can't Take My Eyes Off You
TTITLE6=My Favourite Things
TTITLE7=Don't Cry For me Argentina
TTITLE8=Blowin' In The Wind
TTITLE9=Rhinstone Cowboy
TTITLE10=Ferry Cross The Mercy
TTITLE11=Dream A Little Dream Of Me
TTITLE12=Don't let me Be Misunderstood
TTITLE13=If You Go Away
TTITLE14=I Go To Pieces
TTITLE15=My Sunny Valentine
TTITLE16=Cry Me A River
TTITLE17=Everytime We Say Goodbye
EXTD=
EXTT0=
EXTT1=
EXTT2=
EXTT3=
EXTT4=
EXTT5=
EXTT6=
EXTT7=
EXTT8=
EXTT9=
EXTT10=
EXTT11=
EXTT12=
EXTT13=
EXTT14=
EXTT15=
EXTT16=
EXTT17=
PLAYORDER=
